<svg width="570" height="20" viewBox="0 0 570 20" fill="none" xmlns="http://www.w3.org/2000/svg">
<path d="M366.854 12.25H375.196V15.9999C372.515 15.9999 365.652 15.9999 363.32 15.9999V0H343.573L343.642 12.0002H351.605V16.0001H339.95V0H319.954V12.25H328.296V15.9999H315.844V0H296.097L296.167 12.0002H304.129V16.0001H292.475V0H272.479V12.25H280.821V20H284.746V8.25012H276.404V4.00014H288.549V20H308.055V8.00005H300.069L300.046 4.00014H311.919V20H332.222V8.25012H323.88V4.00014H336.025V20H355.53V8.00005H347.545L347.522 4.00014H359.394V20C363.31 20 375.48 20 379.122 20V8.25012H370.78V4.00014H382.925V20H386.851V0H366.854V12.25Z" fill="#35353F"/>
<path d="M461.264 12.25H469.606V15.9999C466.925 15.9999 460.062 15.9999 457.73 15.9999V0H437.983L438.052 12.0002H446.015V16.0001H434.36V0H414.364V12.25H422.706V15.9999H410.254V0H390.507L390.577 12.0002H398.539V16.0001H386.885V0H366.889V12.25H375.231V20H379.156V8.25012H370.814V4.00014H382.959V20H402.465V8.00005H394.479L394.456 4.00014H406.329V20H426.632V8.25012H418.29V4.00014H430.435V20H449.94V8.00005H441.955L441.932 4.00014H453.804V20C457.72 20 469.89 20 473.532 20V8.25012H465.19V4.00014H477.335V20H481.261V0H461.264V12.25Z" fill="#35353F"/>
<path d="M-10.624 12.25H-2.28215V15.9999C-4.96321 15.9999 -11.8267 15.9999 -14.1586 15.9999V0H-33.9053L-33.8365 12.0002H-25.8739V16.0001H-37.5283V0H-57.5242V12.25H-49.1823V15.9999H-61.6341V0H-81.3811L-81.312 12.0002H-73.3496V16.0001H-85.0036V0H-105V12.25H-96.6579V20H-92.7323V8.25012H-101.074V4.00014H-88.9292V20H-69.4236V8.00005H-77.4093L-77.432 4.00014H-65.5594V20H-45.2565V8.25012H-53.5984V4.00014H-41.4538V20H-21.9481V8.00005H-29.9337L-29.957 4.00014H-18.0843V20C-14.1682 20 -1.99845 20 1.64362 20V8.25012H-6.69828V4.00014H5.44678V20H9.37231V0H-10.624V12.25Z" fill="#35353F"/>
<path d="M83.7859 12.25H92.1279V15.9999C89.4468 15.9999 82.5833 15.9999 80.2514 15.9999V0H60.5047L60.5735 12.0002H68.5361V16.0001H56.8817V0H36.8858V12.25H45.2277V15.9999H32.7759V0H13.0289L13.098 12.0002H21.0604V16.0001H9.40636V0H-10.59V12.25H-2.24786V20H1.67767V8.25012H-6.66423V4.00014H5.48083V20H24.9864V8.00005H17.0007L16.978 4.00014H28.8506V20H49.1535V8.25012H40.8116V4.00014H52.9561V20H72.4619V8.00005H64.4763L64.453 4.00014H76.3257V20C80.2418 20 92.4115 20 96.0536 20V8.25012H87.7117V4.00014H99.8568V20H103.782V0H83.7859V12.25Z" fill="#35353F"/>
<path d="M555.594 12.25H563.936V15.9999C561.255 15.9999 554.391 15.9999 552.059 15.9999V0H532.312L532.381 12.0002H540.344V16.0001H528.689V0H508.694V12.25H517.035V15.9999H504.584V0H484.837L484.906 12.0002H492.868V16.0001H481.214V0H461.218V12.25H469.56V20H473.485V8.25012H465.144V4.00014H477.289V20H496.794V8.00005H488.809L488.786 4.00014H500.658V20H520.961V8.25012H512.619V4.00014H524.764V20H544.27V8.00005H536.284L536.261 4.00014H548.133V20C552.05 20 564.219 20 567.861 20V8.25012H559.519V4.00014H571.665V20H575.59V0H555.594V12.25Z" fill="#35353F"/>
<path d="M650.004 12.25H658.346V15.9999C655.665 15.9999 648.801 15.9999 646.469 15.9999V0H626.723L626.791 12.0002H634.754V16.0001H623.099V0H603.104V12.25H611.445V15.9999H598.994V0H579.247L579.316 12.0002H587.278V16.0001H575.624V0H555.628V12.25H563.97V20H567.895V8.25012H559.554V4.00014H571.699V20H591.204V8.00005H583.219L583.196 4.00014H595.068V20H615.371V8.25012H607.029V4.00014H619.174V20H638.68V8.00005H630.694L630.671 4.00014H642.543V20C646.46 20 658.629 20 662.271 20V8.25012H653.93V4.00014H666.075V20H670V0H650.004V12.25Z" fill="#35353F"/>
<path d="M178.115 12.25H186.457V15.9999C183.776 15.9999 176.913 15.9999 174.581 15.9999V0H154.834L154.903 12.0002H162.865V16.0001H151.211V0H131.215V12.25H139.557V15.9999H127.105V0H107.358L107.427 12.0002H115.39V16.0001H103.736V0H83.7393V12.25H92.0814V20H96.0069V8.25012H87.665V4.00014H99.8101V20H119.316V8.00005H111.33L111.307 4.00014H123.18V20H143.483V8.25012H135.141V4.00014H147.285V20H166.791V8.00005H158.806L158.782 4.00014H170.655V20C174.571 20 186.741 20 190.383 20V8.25012H182.041V4.00014H194.186V20H198.112V0H178.115V12.25Z" fill="#35353F"/>
<path d="M272.525 12.25H280.867V15.9999C278.186 15.9999 271.323 15.9999 268.991 15.9999V0H249.244L249.313 12.0002H257.275V16.0001H245.621V0H225.625V12.25H233.967V15.9999H221.515V0H201.768L201.837 12.0002H209.8V16.0001H198.146V0H178.149V12.25H186.491V20H190.417V8.25012H182.075V4.00014H194.22V20H213.726V8.00005H205.74L205.717 4.00014H217.59V20H237.893V8.25012H229.551V4.00014H241.695V20H261.201V8.00005H253.216L253.192 4.00014H265.065V20C268.981 20 281.151 20 284.793 20V8.25012H276.451V4.00014H288.596V20H292.522V0H272.525V12.25Z" fill="#35353F"/>
</svg>
